<svg width="32" height="32" viewBox="0 0 32 32" fill="none" xmlns="http://www.w3.org/2000/svg">
<rect width="32" height="32" rx="4" fill="#7747CA"/>
<path d="M13.084 17.875C13.084 19.475 14.4007 20.7917 16.0007 20.7917C17.6007 20.7917 18.9173 19.475 18.9173 17.875" stroke="white" stroke-width="1.5" stroke-miterlimit="10" stroke-linecap="round" stroke-linejoin="round"/>
<path d="M13.3409 7.6665L10.3242 10.6915" stroke="white" stroke-width="1.5" stroke-miterlimit="10" stroke-linecap="round" stroke-linejoin="round"/>
<path d="M18.6582 7.6665L21.6749 10.6915" stroke="white" stroke-width="1.5" stroke-miterlimit="10" stroke-linecap="round" stroke-linejoin="round"/>
<path d="M7.66602 12.5417C7.66602 11 8.49102 10.875 9.51602 10.875H22.4827C23.5077 10.875 24.3327 11 24.3327 12.5417C24.3327 14.3333 23.5077 14.2083 22.4827 14.2083H9.51602C8.49102 14.2083 7.66602 14.3333 7.66602 12.5417Z" stroke="white" stroke-width="1.5"/>
<path d="M8.91602 14.3335L10.091 21.5335C10.3577 23.1502 10.9993 24.3335 13.3827 24.3335H18.4077C20.9993 24.3335 21.3827 23.2002 21.6827 21.6335L23.0827 14.3335" stroke="white" stroke-width="1.5" stroke-linecap="round"/>
</svg>
