<svg width="45" height="28" viewBox="0 0 45 28" fill="none" xmlns="http://www.w3.org/2000/svg">
<rect width="45" height="28" rx="14" fill="#7364DB"/>
<circle cx="14" cy="14" r="9" fill="white"/>
<g clip-path="url(#clip0_2978_6504)">
<path d="M14.0013 16.3337C15.29 16.3337 16.3346 15.289 16.3346 14.0003C16.3346 12.7117 15.29 11.667 14.0013 11.667C12.7126 11.667 11.668 12.7117 11.668 14.0003C11.668 15.289 12.7126 16.3337 14.0013 16.3337Z" stroke="#7364DB" stroke-linecap="round" stroke-linejoin="round"/>
<path d="M14 8.16699V9.33366" stroke="#7364DB" stroke-linecap="round" stroke-linejoin="round"/>
<path d="M14 18.667V19.8337" stroke="#7364DB" stroke-linecap="round" stroke-linejoin="round"/>
<path d="M9.875 9.87598L10.6975 10.6985" stroke="#7364DB" stroke-linecap="round" stroke-linejoin="round"/>
<path d="M17.3008 17.3018L18.1233 18.1243" stroke="#7364DB" stroke-linecap="round" stroke-linejoin="round"/>
<path d="M8.16797 14H9.33464" stroke="#7364DB" stroke-linecap="round" stroke-linejoin="round"/>
<path d="M18.668 14H19.8346" stroke="#7364DB" stroke-linecap="round" stroke-linejoin="round"/>
<path d="M10.6975 17.3018L9.875 18.1243" stroke="#7364DB" stroke-linecap="round" stroke-linejoin="round"/>
<path d="M18.1233 9.87598L17.3008 10.6985" stroke="#7364DB" stroke-linecap="round" stroke-linejoin="round"/>
</g>
<defs>
<clipPath id="clip0_2978_6504">
<rect width="14" height="14" fill="white" transform="translate(7 7)"/>
</clipPath>
</defs>
</svg>
