<svg width="40" height="40" viewBox="0 0 40 40" fill="none" xmlns="http://www.w3.org/2000/svg">
<circle cx="20" cy="20" r="20" fill="white"/>
<path d="M20 12.5864V17.0264" stroke="#292D32" stroke-width="1.5" stroke-miterlimit="10" stroke-linecap="round"/>
<path d="M20.0265 6.6665C15.1199 6.6665 11.1465 10.6398 11.1465 15.5465V18.3465C11.1465 19.2532 10.7732 20.6132 10.3065 21.3865L8.6132 24.2132C7.5732 25.9598 8.2932 27.9065 10.2132 28.5465C16.5865 30.6665 23.4799 30.6665 29.8532 28.5465C31.6532 27.9465 32.4265 25.8398 31.4532 24.2132L29.7599 21.3865C29.2932 20.6132 28.9199 19.2398 28.9199 18.3465V15.5465C28.9065 10.6665 24.9065 6.6665 20.0265 6.6665Z" stroke="#292D32" stroke-width="1.5" stroke-miterlimit="10" stroke-linecap="round"/>
<path d="M24.4405 29.0933C24.4405 31.5333 22.4405 33.5333 20.0005 33.5333C18.7872 33.5333 17.6672 33.0266 16.8672 32.2266C16.0672 31.4266 15.5605 30.3066 15.5605 29.0933" stroke="#292D32" stroke-width="1.5" stroke-miterlimit="10"/>
<circle cx="28" cy="8" r="4" fill="#FB7DBA"/>
</svg>
