<svg width="20" height="21" viewBox="0 0 20 21" fill="none" xmlns="http://www.w3.org/2000/svg">
<path d="M2.50879 9.8501V13.5918C2.50879 17.3334 4.00879 18.8334 7.75046 18.8334H12.2421C15.9838 18.8334 17.4838 17.3334 17.4838 13.5918V9.8501" stroke="#656565" stroke-width="1.5" stroke-linecap="round" stroke-linejoin="round"/>
<path d="M10.0007 10.4998C11.5257 10.4998 12.6507 9.25817 12.5007 7.73317L11.9507 2.1665H8.05906L7.50072 7.73317C7.35072 9.25817 8.47572 10.4998 10.0007 10.4998Z" stroke="#656565" stroke-width="1.5" stroke-linecap="round" stroke-linejoin="round"/>
<path d="M15.2587 10.4998C16.942 10.4998 18.1753 9.13317 18.0087 7.45817L17.7753 5.1665C17.4753 2.99984 16.642 2.1665 14.4587 2.1665H11.917L12.5003 8.00817C12.642 9.38317 13.8837 10.4998 15.2587 10.4998Z" stroke="#656565" stroke-width="1.5" stroke-linecap="round" stroke-linejoin="round"/>
<path d="M4.70063 10.4998C6.07563 10.4998 7.3173 9.38317 7.45063 8.00817L7.63397 6.1665L8.03397 2.1665H5.4923C3.30897 2.1665 2.47563 2.99984 2.17563 5.1665L1.95063 7.45817C1.78397 9.13317 3.0173 10.4998 4.70063 10.4998Z" stroke="#656565" stroke-width="1.5" stroke-linecap="round" stroke-linejoin="round"/>
<path d="M10.0003 14.6665C8.60866 14.6665 7.91699 15.3582 7.91699 16.7498V18.8332H12.0837V16.7498C12.0837 15.3582 11.392 14.6665 10.0003 14.6665Z" stroke="#656565" stroke-width="1.5" stroke-linecap="round" stroke-linejoin="round"/>
</svg>
