<svg width="40" height="40" viewBox="0 0 40 40" fill="none" xmlns="http://www.w3.org/2000/svg">
<g clip-path="url(#clip0_2983_2381)">
<path d="M10.5859 28.4117C10.5859 28.964 11.0337 29.4117 11.5859 29.4117H17.4291C17.9814 29.4117 18.4291 28.964 18.4291 28.4117V22.5686C18.4291 22.0163 17.9814 21.5686 17.4291 21.5686H11.5859C11.0337 21.5686 10.5859 22.0163 10.5859 22.5686V28.4117ZM10.5859 18.6078C10.5859 19.1601 11.0337 19.6078 11.5859 19.6078H17.4291C17.9814 19.6078 18.4291 19.1601 18.4291 18.6078V12.7646C18.4291 12.2124 17.9814 11.7646 17.4291 11.7646H11.5859C11.0337 11.7646 10.5859 12.2124 10.5859 12.7646V18.6078Z" fill="#7364DB"/>
<path d="M21.5703 28.4117C21.5703 28.964 22.018 29.4117 22.5703 29.4117H28.4135C28.9657 29.4117 29.4134 28.964 29.4134 28.4117V22.5686C29.4134 22.0163 28.9657 21.5686 28.4134 21.5686H22.5703C22.018 21.5686 21.5703 22.0163 21.5703 22.5686V28.4117ZM21.5703 18.6078C21.5703 19.1601 22.018 19.6078 22.5703 19.6078H28.4135C28.9657 19.6078 29.4134 19.1601 29.4134 18.6078V12.7646C29.4134 12.2124 28.9657 11.7646 28.4134 11.7646H22.5703C22.018 11.7646 21.5703 12.2124 21.5703 12.7646V18.6078Z" fill="#7364DB"/>
</g>
<defs>
<clipPath id="clip0_2983_2381">
<rect width="40" height="40" fill="white"/>
</clipPath>
</defs>
</svg>
