<svg width="40" height="40" viewBox="0 0 40 40" fill="none" xmlns="http://www.w3.org/2000/svg">
<g clip-path="url(#clip0_2983_2385)">
<path d="M8 26C8 26.5523 8.44772 27 9 27H13.6667C14.219 27 14.6667 26.5523 14.6667 26V21.3333C14.6667 20.781 14.219 20.3333 13.6667 20.3333H9C8.44771 20.3333 8 20.781 8 21.3333V26ZM8 17.6667C8 18.219 8.44772 18.6667 9 18.6667H13.6667C14.219 18.6667 14.6667 18.219 14.6667 17.6667V13C14.6667 12.4477 14.219 12 13.6667 12H9C8.44771 12 8 12.4477 8 13V17.6667Z" fill="#7C7C7C"/>
<path d="M29 26.6667H18C17.4477 26.6667 17 26.219 17 25.6667V26C17 25.4477 17.4477 25 18 25H29C29.5523 25 30 25.4477 30 26V25.6667C30 26.219 29.5523 26.6667 29 26.6667Z" fill="#7C7C7C"/>
<path d="M29 22.6667H18C17.4477 22.6667 17 22.219 17 21.6667V22C17 21.4477 17.4477 21 18 21H29C29.5523 21 30 21.4477 30 22V21.6667C30 22.219 29.5523 22.6667 29 22.6667Z" fill="#7C7C7C"/>
<path d="M29 18.6667H18C17.4477 18.6667 17 18.219 17 17.6667V18C17 17.4477 17.4477 17 18 17H29C29.5523 17 30 17.4477 30 18V17.6667C30 18.219 29.5523 18.6667 29 18.6667Z" fill="#7C7C7C"/>
<path d="M29 14.6667H18C17.4477 14.6667 17 14.219 17 13.6667V14C17 13.4477 17.4477 13 18 13H29C29.5523 13 30 13.4477 30 14V13.6667C30 14.219 29.5523 14.6667 29 14.6667Z" fill="#7C7C7C"/>
</g>
<defs>
<clipPath id="clip0_2983_2385">
<rect width="40" height="40" fill="white"/>
</clipPath>
</defs>
</svg>
